M48
METRIC,TZ
T1C0.800
T2C1.000
%
G90
G05
T1
X9400Y24800
X25055Y13763
X26404Y12549
X27672Y10957
X28800Y32000
X28800Y27100
X28887Y9824
X31342Y9068
X32800Y31800
X34155Y32750
X36865Y36263
X37989Y21305
X39697Y21207
X41282Y21110
X43038Y21281
X48400Y5000
T2
X34980Y39400
X37520Y39400
X40060Y39400
X42600Y39400
X45140Y39400
X47680Y39400
T2
X9100Y43000G85X9100Y41000
G05
X14800Y45000G85X12800Y45000
G05
X14800Y39000G85X12800Y39000
G05
T0
M30
